<svg data-v-1084b650="" xmlns="http://www.w3.org/2000/svg" viewBox="0 0 300 300"><!----> <!----> <rect data-v-1084b650="" fill="#EEF1F8" x="0" y="0" width="300px" height="300px" class="logo-background-square"></rect> <!----> <linearGradient data-v-1084b650="" gradientTransform="rotate(25)" id="a6978026-7469-0e64-fa84-7fcbec85f35a" x1="0%" y1="0%" x2="100%" y2="0%"><stop data-v-1084b650="" offset="0%" style="stop-color: rgb(214, 65, 63); stop-opacity: 1;"></stop> <stop data-v-1084b650="" offset="100%" style="stop-color: rgb(66, 133, 211); stop-opacity: 1;"></stop></linearGradient> <g data-v-1084b650="" id="f3949a01-9e48-fb50-779b-5fb3e4b65171" fill="url(#a6978026-7469-0e64-fa84-7fcbec85f35a)" stroke="none" transform="matrix(0.8499999999999999,0,0,0.8499999999999999,30.742980575561546,22.52377882003786)"><svg xmlns="http://www.w3.org/2000/svg" viewBox="0 0 100 100" x="0px" y="0px"><title>Artboard 8</title><path d="M57.66,43.34a3.39,3.39,0,0,0-4.82,0l-7,7.89L43.57,49a3.38,3.38,0,0,0-4.77,0,3.31,3.31,0,0,0,0,4.71l6.4,6.28a1,1,0,0,0,.71.27h0a1,1,0,0,0,.72-.3l11-11.79A3.38,3.38,0,0,0,57.66,43.34Z"></path><path d="M87.26,49.94a1.34,1.34,0,0,0-1.35,1.58l-11,6.4,0,0,4.29-15.82a1.37,1.37,0,1,0-1-.26L73.92,57.63a1.36,1.36,0,0,0-1.16,1l-3.58.26A36.76,36.76,0,0,0,72,44.71V33.2a1,1,0,0,0-.68-.95l-1.49-.5,2.88-7.38A1.37,1.37,0,0,0,74.07,23,1.54,1.54,0,0,0,71,23h0L58.42,28l-3.8-1.29-2.8-15.13a1.41,1.41,0,0,0,.57-.67h.05L64.9,12.17a1.36,1.36,0,0,0,2.33.55l12.07,4.64a1.38,1.38,0,1,0,.36-.93L67.59,11.79A1.37,1.37,0,0,0,65,11.17L52.56,9.93h-.14a1.37,1.37,0,1,0-1.94,1.68L48.81,24.75l-1.49-.5a1,1,0,0,0-.46,0l-1.52-3.06A1.37,1.37,0,1,0,43,19.93l-7.16,1a1.37,1.37,0,0,0-.93-.67L33.52,13a1.37,1.37,0,1,0-2.09-1.22l-9.82,3.36a1.37,1.37,0,1,0,.32.95l9.82-3.36a1.36,1.36,0,0,0,.78.46l1.38,7.32A1.37,1.37,0,1,0,36,21.94l7.16-1a1.36,1.36,0,0,0,1.19.7h.11l1.44,2.91-23.2,7.73a1,1,0,0,0-.68.95v9.17l-4.32,1.69a1.36,1.36,0,0,0-1.1-.68l-8.05-25,.13-.12,18.93,7.59h0A1.37,1.37,0,1,0,29,24.52a1.4,1.4,0,0,0-1,.43L9,17.36H9a1.36,1.36,0,1,0-2.71,0,1.37,1.37,0,0,0,1.29,1.36l8.06,25a1.37,1.37,0,1,0,2.19,1.4L22,43.45v1.26a38.13,38.13,0,0,0,.29,4.6l-6.08,1.76a1.36,1.36,0,0,0-2.38,1.24L7,57.8a1.36,1.36,0,0,0-.68-.19,1.37,1.37,0,1,0,.29,2.71l2.8,4.21a1.37,1.37,0,1,0,2.45,1.11l7.75-1a1.37,1.37,0,1,0,1.19-2h-.09l-4.56-9.74a1.36,1.36,0,0,0,.37-.81l5.94-1.72a36.75,36.75,0,0,0,6.89,16.6l-11,6.34a1.37,1.37,0,0,0-1.82,2l-2.83,8.58a1.38,1.38,0,1,0,.95.31l2.8-8.5h0a1.34,1.34,0,0,0,1.35-1.57l11.09-6.4A36.85,36.85,0,0,0,34,72.13l-5.34,3.42a1.37,1.37,0,1,0,.22,1l5.9-3.79c.34.3.69.6,1,.88L38,88.39a1.37,1.37,0,1,0,1-.15L37,74.5l9.15,6.44a1.18,1.18,0,0,0,.68.22,1.17,1.17,0,0,0,.67-.21l6.58-4.57L70,87.86a1.37,1.37,0,1,0,2.29-.63L79.6,70.31l2.77,5.14a1.37,1.37,0,1,0,1-.49l-.16,0L80.1,69.14l7.11-16.47h0a1.37,1.37,0,0,0,0-2.74ZM19.44,63.62l-7.75,1A1.35,1.35,0,0,0,10.21,64l-2.8-4.21a1.32,1.32,0,0,0,.18-1.19l6.85-5.49a1.36,1.36,0,0,0,.68.19h.09L19.78,63A1.36,1.36,0,0,0,19.44,63.62ZM46.91,75.06l-8.49-5.84A30.21,30.21,0,0,1,27,45.85V36.72L47,30.2l20,6.53v9.13A30.28,30.28,0,0,1,55.46,69.18ZM71.7,23.93l.07.07-2.9,7.43L60.06,28.5ZM51.23,13.64l2.39,12.71-3.85-1.28Zm20.14,73.2h0a1.36,1.36,0,0,0-.74.22L55,75.77l3-2.07A37.33,37.33,0,0,0,68.69,59.95l4.18-.32a1.37,1.37,0,0,0,1.2.73l.16,0L79,69.19Zm3.74-27a1.36,1.36,0,0,0,.33-.88,1.37,1.37,0,0,0,0-.21L86.2,52.5,79.5,68Z"></path></svg></g></svg>