<svg data-v-1084b650="" xmlns="http://www.w3.org/2000/svg" viewBox="0 0 300 300"><!----> <!----> <rect data-v-1084b650="" fill="#EEF1F8" x="0" y="0" width="300px" height="300px" class="logo-background-square"></rect> <!----> <g data-v-1084b650="" id="56a61845-105d-bbf5-b53e-9c1a63c20f86" fill="#3E2835" transform="matrix(2.8,0,0,2.8,27.835991531610503,175.32039330899715)"><path d="M1.43 8.20L1.43 3.82L1.32 1.98L0.46 1.83L0.46 1.35L2.31 1.38L4.16 1.35L4.16 1.83L3.29 1.98L3.18 3.82L3.18 5.16L7.21 5.16L7.22 3.82L7.11 1.98L6.26 1.83L6.26 1.35L8.10 1.38L9.95 1.35L9.95 1.83L9.08 1.98L8.98 3.82L8.98 8.20L9.08 10.04L9.95 10.20L9.95 10.68L8.10 10.64L6.26 10.68L6.26 10.20L7.11 10.04L7.22 8.20L7.22 6.06L3.19 6.05L3.18 8.20L3.29 10.04L4.16 10.20L4.16 10.68L2.31 10.64L0.46 10.68L0.46 10.20L1.32 10.04L1.43 8.20ZM16.42 8.42L16.94 8.92L16.94 8.92Q16.69 9.28 16.36 9.60L16.36 9.60L16.36 9.60Q16.03 9.93 15.55 10.23L15.55 10.23L15.55 10.23Q14.61 10.84 13.55 10.84L13.55 10.84L13.55 10.84Q11.83 10.84 10.85 9.85L10.85 9.85L10.85 9.85Q9.88 8.86 9.88 7.11L9.88 7.11L9.88 7.11Q9.88 5.50 11.03 4.36L11.03 4.36L11.03 4.36Q12.19 3.22 13.82 3.22L13.82 3.22L13.82 3.22Q15.17 3.22 16.00 4.02L16.00 4.02L16.00 4.02Q16.82 4.83 16.82 6.08L16.82 6.08L16.82 6.49L11.71 6.49L11.71 6.49Q11.71 8.03 12.27 8.84L12.27 8.84L12.27 8.84Q12.82 9.65 14.01 9.65L14.01 9.65L14.01 9.65Q14.83 9.65 15.47 9.21L15.47 9.21L15.47 9.21Q16.11 8.77 16.42 8.42L16.42 8.42ZM11.76 5.79L11.76 5.79L15.06 5.64L15.06 5.48L15.06 5.48Q15.06 4.77 14.73 4.38L14.73 4.38L14.73 4.38Q14.39 4.00 13.71 4.00L13.71 4.00L13.71 4.00Q12.82 4.00 12.25 4.67L12.25 4.67L12.25 4.67Q11.91 5.10 11.76 5.79ZM22.64 6.87L22.64 6.87L22.15 6.87L22.15 6.87Q21.51 6.87 20.98 7.02L20.98 7.02L20.98 7.02Q20.45 7.17 20.06 7.45L20.06 7.45L20.06 7.45Q19.31 7.91 19.31 8.69L19.31 8.69L19.31 8.69Q19.31 9.04 19.66 9.35L19.66 9.35L19.66 9.35Q20.01 9.65 20.58 9.65L20.58 9.65L20.58 9.65Q21.53 9.65 22.08 8.85L22.08 8.85L22.08 8.85Q22.64 8.04 22.64 6.87ZM22.81 9.04L22.81 9.04L22.81 9.04Q22.11 10.23 21.38 10.54L21.38 10.54L21.38 10.54Q20.64 10.85 19.87 10.85L19.87 10.85L19.87 10.85Q18.85 10.85 18.21 10.28L18.21 10.28L18.21 10.28Q17.57 9.70 17.57 8.89L17.57 8.89L17.57 8.89Q17.57 7.58 18.91 6.83L18.91 6.83L18.91 6.83Q20.26 6.09 22.64 6.09L22.64 6.09L22.64 5.35L22.64 5.35Q22.64 4.65 22.29 4.41L22.29 4.41L22.29 4.41Q21.94 4.17 21.14 4.17L21.14 4.17L21.14 4.17Q20.33 4.17 19.80 4.36L19.80 4.36L19.80 4.36Q19.50 4.47 19.31 4.55L19.31 4.55L19.31 4.55Q19.28 4.56 19.23 4.59L19.23 4.59L19.23 5.28L18.75 5.43L18.05 3.85L19.03 3.54L19.03 3.54Q19.99 3.22 21.47 3.22L21.47 3.22L21.47 3.22Q23.76 3.22 24.09 4.58L24.09 4.58L24.09 4.58Q24.41 5.93 24.41 9.58L24.41 9.58L24.41 9.81L25.14 10.18L25.14 10.68L24.14 10.66L23.72 10.65L22.94 10.69L22.94 10.69Q22.91 10.63 22.89 10.53L22.89 10.53L22.89 10.53Q22.86 10.43 22.86 10.21L22.86 10.21L22.86 10.21Q22.86 9.97 22.85 9.68L22.85 9.68L22.85 9.68Q22.84 9.39 22.81 9.04ZM26.52 1.22L25.64 1.05L25.64 0.56L27.81 0.20L28.43 0.20L28.32 1.25L28.30 2.12L28.30 7.94L28.30 7.94Q28.30 8.35 28.31 8.72L28.31 8.72L28.31 8.72Q28.32 9.08 28.37 9.53L28.37 9.53L28.37 9.53Q28.42 9.98 28.44 10.04L28.44 10.04L29.19 10.20L29.19 10.68L27.48 10.64L25.76 10.68L25.76 10.20L26.50 10.04L26.50 10.04Q26.52 10.02 26.55 9.84L26.55 9.84L26.55 9.84Q26.58 9.66 26.58 9.39L26.58 9.39L26.58 9.39Q26.61 9.09 26.63 8.70L26.63 8.70L26.63 8.70Q26.65 8.32 26.65 7.94L26.65 7.94L26.65 3.42L26.65 3.42Q26.65 3.13 26.64 2.78L26.64 2.78L26.64 2.78Q26.62 2.42 26.61 1.99L26.61 1.99L26.61 1.99Q26.61 1.73 26.58 1.53L26.58 1.53L26.58 1.53Q26.56 1.32 26.52 1.22L26.52 1.22ZM31.51 4.21L31.51 8.03L31.51 8.03Q31.51 8.91 31.71 9.29L31.71 9.29L31.71 9.29Q31.87 9.67 32.36 9.67L32.36 9.67L32.36 9.67Q32.60 9.67 32.89 9.54L32.89 9.54L32.89 9.54Q33.12 9.41 33.33 9.22L33.33 9.22L33.77 9.71L33.77 9.71Q33.62 9.98 33.08 10.41L33.08 10.41L33.08 10.41Q32.53 10.84 31.71 10.84L31.71 10.84L31.71 10.84Q30.87 10.84 30.36 10.35L30.36 10.35L30.36 10.35Q29.88 9.85 29.88 9.02L29.88 9.02L29.88 4.21L28.93 4.21L28.93 3.72L29.88 3.42L29.82 1.85L31.57 1.49L31.51 3.42L33.46 3.35L33.08 4.25L31.51 4.21ZM41.45 5.43L41.45 7.94L41.45 7.94Q41.45 8.35 41.46 8.72L41.46 8.72L41.46 8.72Q41.48 9.08 41.52 9.53L41.52 9.53L41.52 9.53Q41.57 9.98 41.59 10.04L41.59 10.04L42.35 10.20L42.35 10.68L40.64 10.64L39.83 10.68L39.83 10.20L39.82 10.04L39.82 6.43L39.82 6.43Q39.82 5.40 39.51 4.90L39.51 4.90L39.51 4.90Q39.24 4.40 38.49 4.40L38.49 4.40L38.49 4.40Q37.73 4.40 37.27 5.04L37.27 5.04L37.27 5.04Q36.85 5.67 36.85 6.73L36.85 6.73L36.85 7.94L36.85 7.94Q36.85 8.42 36.86 8.75L36.86 8.75L36.86 8.75Q36.88 9.08 36.92 9.39L36.92 9.39L37.00 10.04L37.75 10.20L37.75 10.68L36.04 10.64L34.33 10.68L34.33 10.20L35.08 10.04L35.15 9.39L35.15 9.39Q35.17 9.09 35.20 8.70L35.20 8.70L35.20 8.70Q35.22 8.32 35.22 7.94L35.22 7.94L35.22 3.42L35.22 3.22L35.22 3.05L35.22 2.91L35.22 2.91Q35.22 2.36 35.17 1.99L35.17 1.99L35.17 1.99Q35.17 1.73 35.15 1.53L35.15 1.53L35.15 1.53Q35.13 1.32 35.09 1.22L35.09 1.22L34.21 1.05L34.21 0.56L36.36 0.20L36.98 0.20L36.88 1.25L36.85 2.12L36.85 4.48L36.85 4.48Q37.39 3.84 38.01 3.53L38.01 3.53L38.01 3.53Q38.63 3.22 39.33 3.22L39.33 3.22L39.33 3.22Q40.30 3.22 40.87 3.82L40.87 3.82L40.87 3.82Q41.45 4.43 41.45 5.43L41.45 5.43ZM45.87 3.82L45.87 3.82L45.87 7.26L45.87 7.26Q45.87 7.72 45.89 8.21L45.89 8.21L45.89 8.21Q45.91 8.70 45.92 9.00L45.92 9.00L45.97 9.75L47.04 9.75L47.04 9.75Q48.30 9.75 49.14 9.63L49.14 9.63L49.14 9.63Q49.98 9.52 50.13 9.45L50.13 9.45L50.61 8.51L51.11 8.70L50.67 10.64L45.00 10.64L43.14 10.68L43.14 10.20L44.01 10.04L44.12 8.20L44.12 3.82L44.01 1.98L43.14 1.83L43.14 1.35L45.00 1.38L47.02 1.35L47.02 1.83L46.00 1.98L45.92 2.78L45.92 2.78Q45.87 3.34 45.87 3.82ZM57.98 8.42L58.50 8.92L58.50 8.92Q58.25 9.28 57.92 9.60L57.92 9.60L57.92 9.60Q57.58 9.93 57.11 10.23L57.11 10.23L57.11 10.23Q56.17 10.84 55.11 10.84L55.11 10.84L55.11 10.84Q53.39 10.84 52.41 9.85L52.41 9.85L52.41 9.85Q51.44 8.86 51.44 7.11L51.44 7.11L51.44 7.11Q51.44 5.50 52.59 4.36L52.59 4.36L52.59 4.36Q53.75 3.22 55.38 3.22L55.38 3.22L55.38 3.22Q56.73 3.22 57.55 4.02L57.55 4.02L57.55 4.02Q58.38 4.83 58.38 6.08L58.38 6.08L58.38 6.49L53.27 6.49L53.27 6.49Q53.27 8.03 53.83 8.84L53.83 8.84L53.83 8.84Q54.38 9.65 55.57 9.65L55.57 9.65L55.57 9.65Q56.39 9.65 57.03 9.21L57.03 9.21L57.03 9.21Q57.67 8.77 57.98 8.42L57.98 8.42ZM53.32 5.79L53.32 5.79L56.62 5.64L56.62 5.48L56.62 5.48Q56.62 4.77 56.29 4.38L56.29 4.38L56.29 4.38Q55.95 4.00 55.27 4.00L55.27 4.00L55.27 4.00Q54.38 4.00 53.81 4.67L53.81 4.67L53.81 4.67Q53.47 5.10 53.32 5.79ZM64.25 10.68L64.25 9.48L64.25 9.48Q63.78 10.20 63.21 10.52L63.21 10.52L63.21 10.52Q62.65 10.84 62.03 10.84L62.03 10.84L62.03 10.84Q60.66 10.84 59.82 9.88L59.82 9.88L59.82 9.88Q58.98 8.92 58.98 7.39L58.98 7.39L58.98 7.39Q58.98 5.54 60.09 4.38L60.09 4.38L60.09 4.38Q61.19 3.22 62.96 3.22L62.96 3.22L62.96 3.22Q63.32 3.22 63.59 3.28L63.59 3.28L64.13 3.35L64.13 3.42L64.09 1.99L64.09 1.99Q64.09 1.68 64.07 1.52L64.07 1.52L64.07 1.52Q64.04 1.36 63.99 1.22L63.99 1.22L63.11 1.05L63.11 0.56L65.28 0.20L65.89 0.20L65.79 1.25L65.76 2.12L65.76 7.98L65.76 7.98Q65.76 8.38 65.78 8.75L65.78 8.75L65.78 8.75Q65.79 9.11 65.81 9.33L65.81 9.33L65.81 9.33Q65.81 9.78 65.91 10.04L65.91 10.04L65.91 10.04Q66.02 10.04 66.07 10.06L66.07 10.06L66.07 10.06Q66.13 10.07 66.28 10.10L66.28 10.10L66.66 10.20L66.66 10.68L65.46 10.64L64.25 10.68ZM64.15 6.84L64.15 6.84L64.15 4.48L64.15 4.48Q64.03 4.40 63.70 4.28L63.70 4.28L63.70 4.28Q63.38 4.17 62.82 4.17L62.82 4.17L62.82 4.17Q61.77 4.17 61.25 4.85L61.25 4.85L61.25 4.85Q60.73 5.53 60.73 6.85L60.73 6.85L60.73 6.85Q60.73 8.15 61.19 8.90L61.19 8.90L61.19 8.90Q61.66 9.65 62.57 9.65L62.57 9.65L62.57 9.65Q63.39 9.65 63.77 8.92L63.77 8.92L63.77 8.92Q64.15 8.19 64.15 6.84ZM70.33 4.22L70.33 4.22L70.33 4.22Q69.61 4.22 69.14 4.74L69.14 4.74L69.14 4.74Q68.67 5.27 68.67 6.08L68.67 6.08L68.67 6.08Q68.67 6.87 69.12 7.38L69.12 7.38L69.12 7.38Q69.58 7.88 70.33 7.88L70.33 7.88L70.33 7.88Q71.02 7.88 71.53 7.36L71.53 7.36L71.53 7.36Q71.76 7.10 71.89 6.78L71.89 6.78L71.89 6.78Q72.01 6.46 72.01 6.08L72.01 6.08L72.01 6.08Q72.01 5.22 71.56 4.73L71.56 4.73L71.56 4.73Q71.13 4.22 70.33 4.22ZM66.99 6.05L66.99 6.05L66.99 6.05Q66.99 4.87 67.93 4.11L67.93 4.11L67.93 4.11Q68.88 3.35 70.33 3.35L70.33 3.35L70.33 3.35Q70.46 3.35 70.60 3.35L70.60 3.35L70.60 3.35Q70.73 3.35 70.85 3.38L70.85 3.38L70.89 3.40L71.31 3.46L71.31 3.46Q71.80 3.54 72.14 3.59L72.14 3.59L72.14 3.59Q72.48 3.63 72.81 3.67L72.81 3.67L72.81 3.67Q73.16 3.67 73.69 3.70L73.69 3.70L73.69 3.70Q74.23 3.73 74.33 3.73L74.33 3.73L74.34 3.96L74.34 4.21L73.87 4.33L73.87 4.33Q73.69 4.37 73.50 4.41L73.50 4.41L73.50 4.41Q73.30 4.44 73.15 4.44L73.15 4.44L73.05 4.44L73.05 4.44Q73.68 5.10 73.68 6.05L73.68 6.05L73.68 6.05Q73.68 7.15 72.71 7.94L72.71 7.94L72.71 7.94Q71.74 8.73 70.33 8.73L70.33 8.73L70.33 8.73Q69.54 8.73 69.13 8.60L69.13 8.60L69.13 8.60Q69.13 8.67 68.90 9.11L68.90 9.11L68.90 9.11Q68.78 9.38 68.73 9.59L68.73 9.59L68.73 9.59Q68.67 9.79 68.67 9.98L68.67 9.98L69.03 9.87L69.03 9.87Q69.27 9.78 69.62 9.74L69.62 9.74L69.62 9.74Q69.98 9.70 70.54 9.70L70.54 9.70L70.54 9.70Q72.01 9.70 73.04 10.21L73.04 10.21L73.04 10.21Q74.07 10.71 74.07 11.78L74.07 11.78L74.07 11.78Q74.07 12.92 72.87 13.67L72.87 13.67L72.87 13.67Q71.66 14.42 70.07 14.42L70.07 14.42L70.07 14.42Q68.65 14.42 67.72 13.86L67.72 13.86L67.72 13.86Q66.78 13.30 66.78 12.49L66.78 12.49L66.78 12.49Q66.78 12.09 66.96 11.83L66.96 11.83L66.96 11.83Q67.06 11.71 67.15 11.61L67.15 11.61L67.15 11.61Q67.20 11.55 67.38 11.40L67.38 11.40L68.20 11.87L68.11 12.11L68.11 12.11Q68.11 12.55 68.77 13.01L68.77 13.01L68.77 13.01Q69.12 13.24 69.57 13.36L69.57 13.36L69.57 13.36Q70.02 13.48 70.63 13.48L70.63 13.48L70.63 13.48Q71.24 13.48 71.81 13.16L71.81 13.16L71.81 13.16Q72.37 12.84 72.37 12.31L72.37 12.31L72.37 12.31Q72.37 11.64 71.42 11.27L71.42 11.27L71.42 11.27Q71.02 11.12 70.36 11.12L70.36 11.12L70.36 11.12Q69.94 11.12 69.44 11.18L69.44 11.18L69.44 11.18Q68.94 11.25 68.37 11.38L68.37 11.38L67.45 10.40L67.45 10.40Q67.45 10.27 67.86 9.37L67.86 9.37L67.86 9.37Q68.26 8.47 68.30 8.32L68.30 8.32L67.88 8.04L67.88 8.04Q66.99 7.33 66.99 6.05ZM80.83 8.42L81.35 8.92L81.35 8.92Q81.10 9.28 80.77 9.60L80.77 9.60L80.77 9.60Q80.44 9.93 79.96 10.23L79.96 10.23L79.96 10.23Q79.02 10.84 77.96 10.84L77.96 10.84L77.96 10.84Q76.24 10.84 75.27 9.85L75.27 9.85L75.27 9.85Q74.29 8.86 74.29 7.11L74.29 7.11L74.29 7.11Q74.29 5.50 75.45 4.36L75.45 4.36L75.45 4.36Q76.60 3.22 78.23 3.22L78.23 3.22L78.23 3.22Q79.58 3.22 80.41 4.02L80.41 4.02L80.41 4.02Q81.24 4.83 81.24 6.08L81.24 6.08L81.24 6.49L76.12 6.49L76.12 6.49Q76.12 8.03 76.68 8.84L76.68 8.84L76.68 8.84Q77.23 9.65 78.42 9.65L78.42 9.65L78.42 9.65Q79.25 9.65 79.88 9.21L79.88 9.21L79.88 9.21Q80.52 8.77 80.83 8.42L80.83 8.42ZM76.17 5.79L76.17 5.79L79.47 5.64L79.47 5.48L79.47 5.48Q79.47 4.77 79.14 4.38L79.14 4.38L79.14 4.38Q78.81 4.00 78.13 4.00L78.13 4.00L78.13 4.00Q77.23 4.00 76.66 4.67L76.66 4.67L76.66 4.67Q76.33 5.10 76.17 5.79ZM83.76 7.08L83.76 7.94L83.76 7.94Q83.76 8.42 83.77 8.75L83.77 8.75L83.77 8.75Q83.79 9.08 83.85 9.54L83.85 9.54L83.85 9.54Q83.90 10.00 83.93 10.04L83.93 10.04L84.82 10.20L84.82 10.68L82.95 10.64L81.24 10.68L81.24 10.20L81.99 10.04L82.06 9.39L82.06 9.39Q82.08 9.09 82.11 8.70L82.11 8.70L82.11 8.70Q82.13 8.32 82.13 7.94L82.13 7.94L82.13 6.40L82.13 6.22L82.13 6.06L82.13 6.06Q82.13 5.81 82.12 5.55L82.12 5.55L82.12 5.55Q82.11 5.28 82.07 5.03L82.07 5.03L82.00 4.19L81.12 4.02L81.12 3.54L81.12 3.54Q81.40 3.54 81.64 3.50L81.64 3.50L81.64 3.50Q81.99 3.43 82.15 3.41L82.15 3.41L82.15 3.41Q82.50 3.35 82.69 3.31L82.69 3.31L82.69 3.31Q82.88 3.26 83.20 3.17L83.20 3.17L83.62 3.17L83.57 5.24L83.57 5.24Q83.90 4.24 84.61 3.72L84.61 3.72L84.61 3.72Q84.94 3.48 85.28 3.35L85.28 3.35L85.28 3.35Q85.62 3.22 85.98 3.22L85.98 3.22L85.98 3.22Q86.12 3.22 86.26 3.24L86.26 3.24L86.26 3.24Q86.39 3.26 86.55 3.31L86.55 3.31L86.55 3.31Q86.70 3.35 86.80 3.43L86.80 3.43L86.38 4.48L86.16 5.27L86.16 5.27Q85.68 5.16 85.67 5.05L85.67 5.05L85.67 5.05Q85.67 4.91 85.69 4.84L85.69 4.84L85.69 4.84Q85.69 4.55 85.60 4.52L85.60 4.52L85.60 4.52Q85.51 4.48 85.36 4.48L85.36 4.48L85.36 4.48Q84.71 4.48 84.24 5.23L84.24 5.23L84.24 5.23Q83.76 5.98 83.76 7.08L83.76 7.08Z"></path></g> <linearGradient data-v-1084b650="" gradientTransform="rotate(25)" id="50a2e08c-6e1f-0b0d-7280-236f8f94b758" x1="0%" y1="0%" x2="100%" y2="0%"><stop data-v-1084b650="" offset="0%" style="stop-color: rgb(214, 65, 63); stop-opacity: 1;"></stop> <stop data-v-1084b650="" offset="100%" style="stop-color: rgb(66, 133, 211); stop-opacity: 1;"></stop></linearGradient> <g data-v-1084b650="" id="6b442a1c-f81d-ca7c-1d31-8a9f02116205" fill="url(#50a2e08c-6e1f-0b0d-7280-236f8f94b758)" stroke="none" transform="matrix(0.3240746391657061,0,0,0.3240746391657061,94.83393398410115,75.48949535350071)"><svg xmlns="http://www.w3.org/2000/svg" viewBox="0 0 100 100" x="0px" y="0px"><title>Artboard 8</title><path d="M57.66,43.34a3.39,3.39,0,0,0-4.82,0l-7,7.89L43.57,49a3.38,3.38,0,0,0-4.77,0,3.31,3.31,0,0,0,0,4.71l6.4,6.28a1,1,0,0,0,.71.27h0a1,1,0,0,0,.72-.3l11-11.79A3.38,3.38,0,0,0,57.66,43.34Z"></path><path d="M87.26,49.94a1.34,1.34,0,0,0-1.35,1.58l-11,6.4,0,0,4.29-15.82a1.37,1.37,0,1,0-1-.26L73.92,57.63a1.36,1.36,0,0,0-1.16,1l-3.58.26A36.76,36.76,0,0,0,72,44.71V33.2a1,1,0,0,0-.68-.95l-1.49-.5,2.88-7.38A1.37,1.37,0,0,0,74.07,23,1.54,1.54,0,0,0,71,23h0L58.42,28l-3.8-1.29-2.8-15.13a1.41,1.41,0,0,0,.57-.67h.05L64.9,12.17a1.36,1.36,0,0,0,2.33.55l12.07,4.64a1.38,1.38,0,1,0,.36-.93L67.59,11.79A1.37,1.37,0,0,0,65,11.17L52.56,9.93h-.14a1.37,1.37,0,1,0-1.94,1.68L48.81,24.75l-1.49-.5a1,1,0,0,0-.46,0l-1.52-3.06A1.37,1.37,0,1,0,43,19.93l-7.16,1a1.37,1.37,0,0,0-.93-.67L33.52,13a1.37,1.37,0,1,0-2.09-1.22l-9.82,3.36a1.37,1.37,0,1,0,.32.95l9.82-3.36a1.36,1.36,0,0,0,.78.46l1.38,7.32A1.37,1.37,0,1,0,36,21.94l7.16-1a1.36,1.36,0,0,0,1.19.7h.11l1.44,2.91-23.2,7.73a1,1,0,0,0-.68.95v9.17l-4.32,1.69a1.36,1.36,0,0,0-1.1-.68l-8.05-25,.13-.12,18.93,7.59h0A1.37,1.37,0,1,0,29,24.52a1.4,1.4,0,0,0-1,.43L9,17.36H9a1.36,1.36,0,1,0-2.71,0,1.37,1.37,0,0,0,1.29,1.36l8.06,25a1.37,1.37,0,1,0,2.19,1.4L22,43.45v1.26a38.13,38.13,0,0,0,.29,4.6l-6.08,1.76a1.36,1.36,0,0,0-2.38,1.24L7,57.8a1.36,1.36,0,0,0-.68-.19,1.37,1.37,0,1,0,.29,2.71l2.8,4.21a1.37,1.37,0,1,0,2.45,1.11l7.75-1a1.37,1.37,0,1,0,1.19-2h-.09l-4.56-9.74a1.36,1.36,0,0,0,.37-.81l5.94-1.72a36.75,36.75,0,0,0,6.89,16.6l-11,6.34a1.37,1.37,0,0,0-1.82,2l-2.83,8.58a1.38,1.38,0,1,0,.95.31l2.8-8.5h0a1.34,1.34,0,0,0,1.35-1.57l11.09-6.4A36.85,36.85,0,0,0,34,72.13l-5.34,3.42a1.37,1.37,0,1,0,.22,1l5.9-3.79c.34.3.69.6,1,.88L38,88.39a1.37,1.37,0,1,0,1-.15L37,74.5l9.15,6.44a1.18,1.18,0,0,0,.68.22,1.17,1.17,0,0,0,.67-.21l6.58-4.57L70,87.86a1.37,1.37,0,1,0,2.29-.63L79.6,70.31l2.77,5.14a1.37,1.37,0,1,0,1-.49l-.16,0L80.1,69.14l7.11-16.47h0a1.37,1.37,0,0,0,0-2.74ZM19.44,63.62l-7.75,1A1.35,1.35,0,0,0,10.21,64l-2.8-4.21a1.32,1.32,0,0,0,.18-1.19l6.85-5.49a1.36,1.36,0,0,0,.68.19h.09L19.78,63A1.36,1.36,0,0,0,19.44,63.62ZM46.91,75.06l-8.49-5.84A30.21,30.21,0,0,1,27,45.85V36.72L47,30.2l20,6.53v9.13A30.28,30.28,0,0,1,55.46,69.18ZM71.7,23.93l.07.07-2.9,7.43L60.06,28.5ZM51.23,13.64l2.39,12.71-3.85-1.28Zm20.14,73.2h0a1.36,1.36,0,0,0-.74.22L55,75.77l3-2.07A37.33,37.33,0,0,0,68.69,59.95l4.18-.32a1.37,1.37,0,0,0,1.2.73l.16,0L79,69.19Zm3.74-27a1.36,1.36,0,0,0,.33-.88,1.37,1.37,0,0,0,0-.21L86.2,52.5,79.5,68Z"></path></svg></g></svg>